# xmcd
# 
# Track frame offsets:
#     150
#     14032
#     29706
#     44302
#     58462
#     72392
#     87819
#     99846
#     114569
#     127112
#     144074
#     161644
#     178508
# 
# Disc length: 2604
# 
# Revision: 0
# Processed by: cddbd v1.5.2PL0 Copyright (c) Steve Scherf et al.
# Submitted via: fre:ac v1.1beta1pre4
# 
DISCID=b70a2a0d
DTITLE=Mark D Sanders - First Fast Car
DYEAR=2017
DGENRE=Country
TTITLE0=Heads Carolina, Tails California
TTITLE1=That Was Him
TTITLE2=One Wave
TTITLE3=Visions Of My Mortality
TTITLE4=With One Without
TTITLE5=First Fast Car
TTITLE6=Stuck On My Baby
TTITLE7=Come From A Woman
TTITLE8=Things That I Lean On
TTITLE9=Dry County Blues
TTITLE10=Feel Your Love
TTITLE11=My Outlook On Life
TTITLE12=In The Arms Of Innocene
EXTD=
EXTT0=
EXTT1=
EXTT2=
EXTT3=
EXTT4=
EXTT5=
EXTT6=
EXTT7=
EXTT8=
EXTT9=
EXTT10=
EXTT11=
EXTT12=
PLAYORDER=
